<svg xmlns="http://www.w3.org/2000/svg" xmlns:xlink="http://www.w3.org/1999/xlink" width="320" height="320" version="1.1" style=""><rect id="backgroundrect" width="100%" height="100%" x="0" y="0" fill="none" stroke="none"/>
    <!-- Generator: Sketch 47.1 (45422) - http://www.bohemiancoding.com/sketch -->
    <title>Headshot</title>
    <desc>Created with Sketch.</desc>
    <defs>
        <rect id="path-1" x="0" y="0" width="320" height="320"/>
    </defs>
    
<g class="currentLayer" style=""><title>Layer 1</title><g id="Person-Cards" stroke="none" stroke-width="1" fill="none" fill-rule="evenodd" class="">
        <g id="Browser">
            <g id="svg_1">
                <g id="card--PersonCard-players">
                    <g id="card--PersonCard-default">
                        <g id="Headshot">
                            <mask id="mask-2" fill="white" transform="translate(0,0.5586591958999634) translate(0,0.5586591958999634) translate(0,0.5586591958999634) translate(-3.3519554138183594,-1.1173185110092163) translate(11.173184394836426,-14.525139808654785) translate(370,0) translate(688,29) translate(32,1254) translate(0,1370) translate(-1090,-2668) translate(329.3365783691406,0) scale(1) translate(-329.3365783691406,0) translate(1.1731843948364258,319.90118408203125) scale(0.9415324926376343) translate(-1.1731843948364258,-319.90118408203125) translate(1.2460371255874634,339.7664794921875) scale(0.9946773052215576) translate(-1.2460371255874634,-339.7664794921875) translate(340.58929443359375,341.5846252441406) scale(0.9803789854049683) translate(-340.58929443359375,-341.5846252441406) ">
                                <use xlink:href="#path-1" id="svg_2"/>
                            </mask>
                            <g id="Mask"/>
                            <path d="M148.1974565466636,13.407815353810985 L157.05160195665476,13.407815353810985 C158.93905939024384,13.592993459160601 160.8260917224616,13.778596206808439 162.71397425742194,13.963774312158053 C157.94181564423627,14.143006323553728 153.13143279716593,13.9259741696848 148.46800281160037,15.307589617605972 C149.04562284245557,15.512304757639965 149.61729604484051,15.592576934201668 150.18939434859675,15.592152200088613 C160.48631544975754,15.590453355450808 170.58234355882905,17.161493974408906 180.57049232487745,19.51954147224132 C192.6750234171788,22.376635485376223 202.96727207583766,28.231405820527506 210.2941228278545,38.47268813009545 C222.36425100788517,55.34428019989502 226.06356577374555,74.00521915304593 221.57469636703394,94.27032734327233 C221.10113252129716,96.40667015291886 220.56046417464944,98.52857328812544 220.03381040107078,100.72735091061811 C224.45005266162696,100.22575608245214 226.35619802893248,101.53431909921738 226.65392690984703,105.43537614176415 C226.75161300141494,106.71038644900153 226.28866750850466,108.11026546378449 225.79089492009788,109.33430951374565 C223.8482238881018,114.1098652653194 222.94484399390262,119.1088241824583 222.07289313866656,124.16002282469645 C221.09136437121316,129.84448019756815 219.54028515379466,135.4393219779075 216.3960802453135,140.36862670405344 C214.57148180779583,143.22784383686627 213.6625801864978,144.34783170170888 210.16245984353264,141.88955035033175 C210.03589256679285,142.15585019228357 209.85453771116275,142.3953925196287 209.80527002308025,142.65999287424097 C208.5052007704304,149.62583156604586 206.54469108931463,156.40861591488127 203.40260985139886,162.75563738678423 C200.36670938731223,168.887325274012 199.9513320951449,175.2458143833386 200.9430541140536,181.82133472838876 C201.05985232256384,182.59432602423442 201.542760135159,183.63743940179094 202.16370102562638,183.95597988698742 C206.47163975993357,186.1691971839201 209.72244962546958,189.54827289538994 212.76726987318875,193.18005714082273 C215.37760071179824,196.2936813767922 218.31581692060797,198.92737259162044 222.24363055961567,200.32045549333603 C227.44815399320018,202.16713992110394 232.6641450642083,203.9947113137839 237.79051962453852,206.04356220146386 C255.4185388188468,213.08839905112055 272.9505714089265,220.3766013860267 290.643572351726,227.25282356715385 C297.5571704002863,229.9396047098236 302.6181390288995,234.37623347329037 306.23250880843835,240.64595627468154 C312.3790623896235,251.30856096041052 315.6566288516205,262.7938497314388 315.61670513039627,275.1319763226151 C315.5801794657056,286.52000318530094 315.37843718901945,297.90803096613223 315.2692843781734,309.2956336455924 C315.23445728267683,312.93548655376935 315.2637626510745,316.57618966468897 315.2637626510745,320.38253357083016 L312.30813381266205,320.38253357083016 C210.3820398511929,320.38253357083016 108.45552170649803,320.38210938760443 6.529003084367536,320.3855074441381 C5.705045567971293,320.3855074441381 4.881088042393692,320.4339249294779 4.056705801065959,320.45983315948735 L4.056705801065959,291.7729450223708 C4.170530861603216,290.96257877723787 4.3518864609313175,290.15518548726703 4.386288813133188,289.34142118560044 C4.549806148962808,285.45268106507456 4.703130205792691,281.5635167613226 4.804638371853919,277.6730780716027 C4.998735590589746,270.2383479765627 6.0380263335842645,262.9267871017289 7.643469341469871,255.6661915660259 C9.935260475306741,245.30174086258293 15.392067809736972,237.24394620651012 24.41864988011739,231.5879449174389 C30.939381728131906,227.50255914595422 37.87761371254782,224.34561313222693 45.21253459634203,222.08397651366283 C63.82038352983682,216.3460050297235 81.9181433201624,209.25827150368056 99.72751792098805,201.43237377728866 C102.29750094696217,200.3030419455881 104.81227019089998,198.56211319027787 106.71968957691575,196.51453668856638 C110.38884877163592,192.57652887995806 114.45894374779205,189.29896149981533 119.15125491852938,186.71496307444116 C119.71231068623331,186.40576655610306 120.28313460402126,185.65868349026724 120.37869702502378,185.04156483955904 C120.72951583378025,182.77950403776924 120.83824446140049,180.48134267266053 121.11686030722724,178.20696494885016 C121.85799746273845,172.15639797189323 121.06759261914475,166.47491355418407 118.13404977098241,160.9722370564589 C116.27547352256524,157.48570710333718 115.1597329988534,153.5863495481304 113.87707729395177,149.81568202208274 C113.12787055755051,147.61350726120222 112.70569807046151,145.30005510076464 112.09834848798295,142.88594481174258 C109.94756416760454,144.2492972436893 108.42664052132614,143.27796172769143 107.19410178910411,141.7965367012657 C106.2270136142366,140.63407726140798 105.31556413914754,139.35057227190947 104.71203624554106,137.97447781657073 C103.63027344091412,135.50727759970678 102.73241453929752,132.95300872595564 101.87957607644739,130.3936441446229 C100.88020902713272,127.3942684270814 100.38753343171174,124.16469526719855 99.00336967092655,121.36748692771445 C96.5599533708049,116.43011262067856 95.75001167615576,111.34705891996043 96.21592994059925,105.9556589036469 C96.44697776931218,103.28714059332239 97.92033275577496,100.63858460268264 101.52790761583579,100.88662069414345 C101.84729729381472,100.9087066843939 102.17475673631266,100.80932202363162 102.62835807873563,100.74901179949701 C97.35970190581322,83.6306569224304 94.98678917309616,66.47535164656033 100.23888126649642,48.480374206271804 C99.69608860658147,49.05332197825417 99.5444634862038,49.21301686315105 99.39326300812466,49.37313648216098 C99.21912762245651,49.55704038517102 99.04499232860299,49.74179375640758 98.61899778538371,50.19327152007979 C98.71371037090196,44.051814931880585 101.24971576960561,39.42661009834535 105.08578996188643,35.264350390461885 C104.20704372809956,35.600728973890526 103.32829721886893,35.93710746550475 102.44955080145289,36.27306131482033 C106.38033748743733,31.87423241838357 111.27566440268374,29.098260050036064 116.96904155918808,28.19572925680511 C119.26295650131196,27.83174387417288 120.049114003775,27.003114429436216 120.90917212021628,25.011175892986476 C123.25914994534432,19.568809068508983 128.3965679598724,17.213734617653536 133.36452202127418,14.755877816760623 C132.76311834912028,15.516552006956099 132.16171375882092,16.277226197151993 131.56031008666713,17.03790038734747 C132.31886078992653,17.092689343456442 132.8977542886046,16.862066157041824 133.49278786720794,16.687930771373566 C136.36134896687915,15.847833872842493 139.2082491776714,14.911325452340952 142.11503542937274,14.231348172819816 C144.09805528396436,13.767553487127085 146.16686849132913,13.669443120518807 148.1974565466636,13.407815353810985 " id="Fill-1" fill="#8091A1" mask="url(#mask-2)"/>
                        </g>
                    </g>
                </g>
            </g>
        </g>
    </g></g></svg>